PathFileType	4	(X/Y/Z)	path1_15_0-580.trc
DataRate	CameraRate	NumFrames	NumMarkers	Units	OrigDataRate	OrigDataStartFrame	OrigNumFrames
30	30	8	22	m	30	362	580
Frame#	Time	Hip			RHip			RKnee			RAnkle			RBigToe			RSmallToe			RHeel			LHip			LKnee			LAnkle			LBigToe			LSmallToe			LHeel			Neck			Head			Nose			RShoulder			RElbow			RWrist			LShoulder			LElbow			LWrist		
		X1	Y1	Z1	X2	Y2	Z2	X3	Y3	Z3	X4	Y4	Z4	X5	Y5	Z5	X6	Y6	Z6	X7	Y7	Z7	X8	Y8	Z8	X9	Y9	Z9	X10	Y10	Z10	X11	Y11	Z11	X12	Y12	Z12	X13	Y13	Z13	X14	Y14	Z14	X15	Y15	Z15	X16	Y16	Z16	X17	Y17	Z17	X18	Y18	Z18	X19	Y19	Z19	X20	Y20	Z20	X21	Y21	Z21	X22	Y22	Z22
363	12.1	2.228351729915979	0.8163411754586276	0.5713497393736235	2.2246833344766475	0.8031327241530059	0.4873145773742502	2.089476430966909	0.49214124568511497	0.4999302571779105	1.9978473247581758	0.129300142964295	0.5064807761948336	1.814452143484848	0.08608528732387588	0.4991592201901744	1.8531661506124186	0.06464888061036199	0.44994179120568634	2.0196928951198196	0.04235935173089303	0.538080816341869	2.2334521913273915	0.7894859851953214	0.6595722257276834	2.3581961949791928	0.4467014797144805	0.6499283479891053	2.5283071688786856	0.11697693776237904	0.6266670719946186	2.3724782573731256	0.0021120545610865188	0.604935364272014	2.4069151833628264	0.015684741683301723	0.667169969425789	2.5929960817885642	0.056509239164184856	0.6082035948700184	2.159486691288476	1.4209843131555362	0.6096069734777357	2.086491857434746	1.6604299019134428	0.5967781926246609	2.0374885110864214	1.5530577712643456	0.583524589196933	2.248565688291273	1.3523669514232217	0.44486835600752594	2.3329685947705796	1.0879392728034505	0.411588438964848	2.3636199443991783	0.8386981041140343	0.40179436023724835	2.1557368707678184	1.3192643899723957	0.7824263278266124	2.096531674722697	1.0635069326460374	0.804966420042894	1.9390406696678903	0.8688982563789258	0.7789719924405165
364	12.133333333333333	2.2008991419380854	0.816477270893344	0.5666359683154789	2.1994457642191096	0.8037321201384602	0.4838530352074226	2.0685713834832016	0.48717856746279387	0.4989727840258202	1.9909027611187327	0.12392370893097819	0.5081961979219725	1.8056057680488267	0.07788350031167122	0.501008470456359	1.846604238393144	0.05735385391171764	0.45097973879599884	2.0174538519410414	0.04082762920601832	0.5403589263459567	2.20427409827523	0.7902660567886813	0.6547511533493647	2.333152436663454	0.44726611678606426	0.6470308559791624	2.521303921107549	0.12525492130975507	0.6271028866329408	2.3736597485658364	0.0004655613535749923	0.6045136851573606	2.4083562049720832	0.01754705359045767	0.6661462812015538	2.5863220026648004	0.07261215894447536	0.6107605600690492	2.1336881901195452	1.4205896841425896	0.6047183590063585	2.059445437171966	1.6572063578087706	0.5944650409586226	2.0102329093685323	1.552400364533466	0.5810211697411134	2.221005168552175	1.3514266026658561	0.44155335214689995	2.3054487819602003	1.0861945312719767	0.407647570063325	2.335270738303018	0.8361058125357382	0.3951045648082277	2.1365884654115725	1.3219092196501776	0.7830862705942397	2.075287329350489	1.0603716980796312	0.8014010681181785	1.9195854187525065	0.8666545581878429	0.7755629671215503
365	12.166666666666666	2.172278883009718	0.8171034750380254	0.562232604910971	2.1728719625905115	0.8053202039905784	0.4806563446783618	2.046841047112432	0.4823879406659417	0.49760427654254347	1.9863300445201555	0.11883471423831207	0.5096914983047831	1.7983237992429468	0.0691071311513842	0.5024365965427774	1.8422196617383302	0.05058801077003546	0.4518180784099232	2.018468736577778	0.04007042539342423	0.5419925937160914	2.172818857186086	0.7921164746267154	0.6498780159921288	2.301573215153369	0.44752056101765175	0.6442786109152944	2.5091243669505783	0.13603906138646887	0.6267434893462622	2.374330593904678	0.0007847464463761502	0.6055944884068423	2.409966105169959	0.020487714686937324	0.6643077604932417	2.5748789843914186	0.09301213790506167	0.6130837883932694	2.106878244010136	1.4210466677333422	0.5987432821678519	2.033031534944931	1.6568772518507944	0.5899910389360796	1.9806432871629345	1.5522300161834053	0.5794287655597542	2.1919085824414926	1.3504292778174758	0.4366171673155898	2.2758206034700867	1.0842860011312676	0.4033669983555509	2.303230880450968	0.833278459181889	0.3867544759130697	2.115947608053936	1.3252442354850609	0.7842851268407051	2.0548704917403318	1.0571388865586653	0.797200906903806	1.903116783253492	0.863726361941335	0.7738295558110541
366	12.2	2.1430786581096966	0.8182368252080734	0.5588340721344476	2.1453953976924716	0.807454465542245	0.4779558253880665	2.0257817200562354	0.4783848809341368	0.496164894454742	1.983181633559167	0.11441290610793191	0.5107236037600706	1.7922859100661324	0.061266847345907705	0.5037347034643266	1.839008203749268	0.04516372126691556	0.452705505951524	2.0204307476003702	0.040012222817242	0.5428888014754988	2.140590574960847	0.7947025027676594	0.6458126050694704	2.2627671825335502	0.4471725885814162	0.6415672306244538	2.490062032803474	0.14907663704390478	0.6251751849137807	2.3732797741537284	0.0035956521833653047	0.6083832396099441	2.409656239213954	0.02523003571930164	0.6626429695837527	2.5570430676616325	0.11704266900812402	0.6150050492306904	2.079201226290486	1.4223697882761286	0.5921304246005121	2.0069366110681828	1.6584150838856513	0.5840420899814399	1.9491104108814914	1.5523080506351996	0.5790370365266269	2.1614690542677177	1.3494516797867993	0.43012462142507135	2.243842770105012	1.0822533648085986	0.39864582377397245	2.267098211122868	0.8302841751088083	0.37691161487484715	2.0938023025352885	1.3291379044995963	0.7848298747008969	2.034809124104738	1.0547168658983737	0.79260196128986	1.8898398033287431	0.86023818738485	0.7739147089660865
367	12.233333333333333	2.1139353590153647	0.8198743472346767	0.5568745128117764	2.1177012006836784	0.809664904481862	0.4758291541556691	2.0063098703847815	0.47514659951535365	0.4947233874598238	1.980914728023968	0.11078410768119104	0.5112176115276946	1.787446803667148	0.05539112393571484	0.505148002373369	1.8366402419502479	0.041222541805906315	0.4536478484645807	2.0218002682260963	0.040421475592568604	0.543045496989243	2.1090741247461455	0.7976662046869913	0.6431954029318178	2.2166290734345138	0.44631503418988633	0.6393237031455498	2.462667218555461	0.16389969146581806	0.6224282372418191	2.368188317529342	0.009245665344865513	0.6129124605418999	2.404540909488219	0.03224763895539048	0.6619579619961338	2.5309488025770293	0.1434244858217413	0.6164663226377098	2.0509317399508356	1.4243372150269435	0.5854564992494553	1.9808124550893331	1.6608570621302954	0.5772261494433114	1.916581688940078	1.5526609630831625	0.5789151413829514	2.1302287862934035	1.3488901141972893	0.42287442026208294	2.2092201440303403	1.080058583882027	0.39317514310243534	2.2264967662812545	0.8272007874386822	0.36595070046174205	2.0705331107527107	1.3334070160337466	0.7838287937278635	2.0147803066368413	1.0539108122924876	0.7882966689576827	1.8796685067457617	0.8562630532878969	0.7759539738053761
368	12.266666666666667	2.0855899468682413	0.8219753291453848	0.5563977732500586	2.090618223844869	0.8115529228827417	0.47420640745754805	1.9889480124916608	0.471883808549842	0.4929296221815052	1.9792485377092806	0.10801007454292048	0.5112791251331736	1.7836470823401416	0.051769280152643746	0.5068180279935658	1.8350857376733416	0.038444418332131025	0.4544259039133265	2.0221902331747525	0.04089113347109968	0.5425988527366393	2.079315311107145	0.8006861585096217	0.6422212648391148	2.1637373621922067	0.4457175698529981	0.6383475036323013	2.425943369270652	0.17979732480903288	0.6191911691835513	2.355357412403015	0.017612915730880137	0.6188352900814389	2.3910463568892446	0.04140749168810947	0.6625854597625626	2.494920156271892	0.1698563809102803	0.6175376952755831	2.0223382835500114	1.426611871610337	0.5792690442611245	1.9544324917172757	1.6634469002086465	0.5701010406318396	1.8842756363653455	1.5535694684674761	0.5771620679990304	2.0990643478517055	1.3494405075954812	0.41635113908093346	2.1716454155938503	1.0775791861961017	0.3866300043518795	2.1812134519486683	0.8241212582020456	0.3543816625044251	2.0465556458174303	1.3377631792495155	0.7808405188343853	1.995108941916063	1.0549298449762043	0.7851131228334106	1.872225194531473	0.8519465521768165	0.7800033576196542
369	12.3	2.0587494872561303	0.824452675691552	0.5570913975694707	2.064876347919679	0.8128886353274716	0.47294034983027844	1.9741673104807342	0.4679124842189657	0.4902706753735959	1.9780908932071732	0.10612659638245864	0.5111056050603556	1.7807026380551394	0.0499679619603904	0.5086593268521734	1.8343391616321392	0.03640828449611706	0.4546679302522303	2.0221061245571	0.041030500650717075	0.5418378912376133	2.0517585078406557	0.8035364154244006	0.642671096015586	2.1052128041059803	0.446670000224241	0.6395289609209667	2.3794206313557633	0.1952853414606585	0.6165762170770347	2.3297747730888996	0.0279558360378416	0.6256986240596417	2.364773114820865	0.051887003627878174	0.6648535062062212	2.4478208450466097	0.19278584962123038	0.6186323358764814	1.9935915670817055	1.4289238320555655	0.5739387407869484	1.9276628375734475	1.6656905831637214	0.5632102656949844	1.8531506664089066	1.5552742815598473	0.5722269594696264	2.0685891924355384	1.351380346850299	0.4115976044530494	2.1308140557794797	1.0746957158316937	0.3789366254799486	2.1313198703633813	0.8212306166583558	0.34278976273744766	2.0222301579620128	1.3419010551813446	0.7758548866709105	1.9765725850630185	1.0571483446867582	0.7833257253858545	1.8668967178034241	0.8475778057797365	0.7858449162645976
370	12.333333333333334	2.0336997252786744	0.8272197581745002	0.5584694400987666	2.0407271530245445	0.8136740046977793	0.47190566782307647	1.9620192289423501	0.46344365056755454	0.4866201405780369	1.9774174943242444	0.10501126092562914	0.5109160306701129	1.7786168482444444	0.049119168809918665	0.5103653498948905	1.8342067222737517	0.03480699627594491	0.4541958520276468	2.0222300738090673	0.04073066356379704	0.541193528382093	2.0260366507356657	0.8061344399835992	0.6440670892104633	2.0425976476735275	0.45039163067954935	0.6432712256916703	2.3230241812536714	0.2077425715160388	0.6155919292306273	2.286100547763598	0.03871090222925435	0.633303112910497	2.3208818944856655	0.062091780580676964	0.6692795170156922	2.389155312738102	0.20759963425524322	0.6205310227098222	1.9647418249665196	1.4311843829568636	0.5696073257925116	1.9003044338421937	1.6673702039608957	0.5570490789034381	1.8235628038830658	1.5577724140756033	0.5638419838932113	2.038693898781495	1.3540895788633338	0.40832488873672546	2.0865442930125595	1.071428400542333	0.37042396455108234	2.0771662009575804	0.8188822897522594	0.331894602978819	1.9975978015019666	1.3455631533392167	0.7690895745787591	1.9596463288264194	1.0596168576036535	0.7826186729033376	1.863091544552618	0.8435350829133254	0.7930030039521435
